HIERARCHY
ROOT hip
{
  OFFSET 0 0 0
  CHANNELS 6 Xposition Yposition Zposition Zrotation Yrotation Xrotation
  JOINT abdomen
  {
    OFFSET 0 20.6881 -0.73152
    CHANNELS 3 Zrotation Xrotation Yrotation
    JOINT chest
    {
      OFFSET 0 11.7043 -0.48768
      CHANNELS 3 Zrotation Xrotation Yrotation
      JOINT neck
      {
        OFFSET 0 22.1894 -2.19456
        CHANNELS 3 Zrotation Xrotation Yrotation
        JOINT head
        {
          OFFSET -0.24384 7.07133 1.2192
          CHANNELS 3 Zrotation Xrotation Yrotation
          JOINT leftEye
          {
            OFFSET 4.14528 8.04674 8.04672
            CHANNELS 3 Zrotation Xrotation Yrotation
            End Site
            {
              OFFSET 1 0 0
            }
          }
          JOINT rightEye
          {
            OFFSET -3.6576 8.04674 8.04672
            CHANNELS 3 Zrotation Xrotation Yrotation
            End Site
            {
              OFFSET 1 0 0
            }
          }
        }
      }
      JOINT rCollar
      {
        OFFSET -2.68224 19.2634 -4.8768
        CHANNELS 3 Zrotation Xrotation Yrotation
        JOINT rShldr
        {
          OFFSET -8.77824 -1.95073 1.46304
          CHANNELS 3 Zrotation Xrotation Yrotation
          JOINT rForeArm
          {
            OFFSET -28.1742 -1.7115 0.48768
            CHANNELS 3 Zrotation Xrotation Yrotation
            JOINT rHand
            {
              OFFSET -22.5879 0.773209 7.07136
              CHANNELS 3 Zrotation Xrotation Yrotation
              JOINT rThumb1
              {
                OFFSET -1.2192 -0.487915 3.41376
                CHANNELS 3 Zrotation Xrotation Yrotation
                JOINT rThumb2
                {
                  OFFSET -3.37035 -0.52449 3.41376
                  CHANNELS 3 Zrotation Xrotation Yrotation
                  End Site
                  {
                    OFFSET -1.78271 -1.18214 1.43049
                  }
                }
              }
              JOINT rIndex1
              {
                OFFSET -7.75947 0.938293 5.60832
                CHANNELS 3 Zrotation Xrotation Yrotation
                JOINT rIndex2
                {
                  OFFSET -2.54057 -0.884171 1.56538
                  CHANNELS 3 Zrotation Xrotation Yrotation
                  End Site
                  {
                    OFFSET -1.62519 -0.234802 1.16502
                  }
                }
              }
              JOINT rMid1
              {
                OFFSET -8.24714 1.18213 3.41376
                CHANNELS 3 Zrotation Xrotation Yrotation
                JOINT rMid2
                {
                  OFFSET -3.10165 -0.590103 1.0647
                  CHANNELS 3 Zrotation Xrotation Yrotation
                  End Site
                  {
                    OFFSET -2.48547 -0.328903 0.83742
                  }
                }
              }
              JOINT rRing1
              {
                OFFSET -8.82822 0.546677 1.51678
                CHANNELS 3 Zrotation Xrotation Yrotation
                JOINT rRing2
                {
                  OFFSET -2.60934 -0.819778 -0.0198488
                  CHANNELS 3 Zrotation Xrotation Yrotation
                  End Site
                  {
                    OFFSET -2.33842 -0.294052 0.168128
                  }
                }
              }
              JOINT rPinky1
              {
                OFFSET -8.27202 -0.0477905 -0.4584
                CHANNELS 3 Zrotation Xrotation Yrotation
                JOINT rPinky2
                {
                  OFFSET -1.82734 -0.647385 -0.700984
                  CHANNELS 3 Zrotation Xrotation Yrotation
                  End Site
                  {
                    OFFSET -1.69225 -0.51767 -0.607171
                  }
                }
              }
            }
          }
        }
      }
      JOINT lCollar
      {
        OFFSET 2.68224 19.2634 -4.8768
        CHANNELS 3 Zrotation Xrotation Yrotation
        JOINT lShldr
        {
          OFFSET 8.77824 -1.95073 1.46304
          CHANNELS 3 Zrotation Xrotation Yrotation
          JOINT lForeArm
          {
            OFFSET 28.1742 -1.7115 0.48768
            CHANNELS 3 Zrotation Xrotation Yrotation
            JOINT lHand
            {
              OFFSET 22.5879 0.773209 7.07136
              CHANNELS 3 Zrotation Xrotation Yrotation
              JOINT lThumb1
              {
                OFFSET 1.2192 -0.487915 3.41376
                CHANNELS 3 Zrotation Xrotation Yrotation
                JOINT lThumb2
                {
                  OFFSET 3.37035 -0.52449 3.41376
                  CHANNELS 3 Zrotation Xrotation Yrotation
                  End Site
                  {
                    OFFSET 1.78271 -1.18214 1.43049
                  }
                }
              }
              JOINT lIndex1
              {
                OFFSET 7.75947 0.938293 5.60832
                CHANNELS 3 Zrotation Xrotation Yrotation
                JOINT lIndex2
                {
                  OFFSET 2.54057 -0.884171 1.56538
                  CHANNELS 3 Zrotation Xrotation Yrotation
                  End Site
                  {
                    OFFSET 1.62519 -0.234802 1.16502
                  }
                }
              }
              JOINT lMid1
              {
                OFFSET 8.24714 1.18213 3.41376
                CHANNELS 3 Zrotation Xrotation Yrotation
                JOINT lMid2
                {
                  OFFSET 3.10165 -0.590103 1.0647
                  CHANNELS 3 Zrotation Xrotation Yrotation
                  End Site
                  {
                    OFFSET 2.48547 -0.328903 0.83742
                  }
                }
              }
              JOINT lRing1
              {
                OFFSET 8.82822 0.546677 1.51678
                CHANNELS 3 Zrotation Xrotation Yrotation
                JOINT lRing2
                {
                  OFFSET 2.60934 -0.819778 -0.0198488
                  CHANNELS 3 Zrotation Xrotation Yrotation
                  End Site
                  {
                    OFFSET 2.33842 -0.294052 0.168128
                  }
                }
              }
              JOINT lPinky1
              {
                OFFSET 8.27202 -0.0477905 -0.4584
                CHANNELS 3 Zrotation Xrotation Yrotation
                JOINT lPinky2
                {
                  OFFSET 1.82734 -0.647385 -0.700984
                  CHANNELS 3 Zrotation Xrotation Yrotation
                  End Site
                  {
                    OFFSET 1.69225 -0.51767 -0.607171
                  }
                }
              }
            }
          }
        }
      }
    }
  }
  JOINT rButtock
  {
    OFFSET -8.77824 4.35084 1.2192
    CHANNELS 3 Zrotation Xrotation Yrotation
    JOINT rThigh
    {
      OFFSET 0 -1.70687 -2.19456
      CHANNELS 3 Zrotation Xrotation Yrotation
      JOINT rShin
      {
        OFFSET 0 -36.8199 0.73152
        CHANNELS 3 Zrotation Xrotation Yrotation
        JOINT rFoot
        {
          OFFSET 0.73152 -45.1104 -5.12064
          CHANNELS 3 Zrotation Xrotation Yrotation
          End Site
          {
            OFFSET -1.1221 -3.69964 12.103
          }
        }
      }
    }
  }
  JOINT lButtock
  {
    OFFSET 8.77824 4.35084 1.2192
    CHANNELS 3 Zrotation Xrotation Yrotation
    JOINT lThigh
    {
      OFFSET 0 -1.70687 -2.19456
      CHANNELS 3 Zrotation Xrotation Yrotation
      JOINT lShin
      {
        OFFSET 0 -36.8199 0.73152
        CHANNELS 3 Zrotation Xrotation Yrotation
        JOINT lFoot
        {
          OFFSET -0.73152 -45.1104 -5.12064
          CHANNELS 3 Zrotation Xrotation Yrotation
          End Site
          {
            OFFSET 1.1221 -3.69964 12.103
          }
        }
      }
    }
  }
}
MOTION
Frames:	8
Frame Time:	0.00833333
-3.97238 76.8747 35.2397 -1.5173 -2.9542 2.1254 1.29707 26.9557 -2.55633 2.10857 -7.3647 -0.529654 10.632 -4.15757 6.1287 -12.8079 7.50032 9.18254 -0.0 0.0 0.0 -0.0 0.0 0.0 4.48389e-14 6.98003e-14 -8.87624e-14 41.2645 83.4865 -0.374292 -25.6819 -46.8627 97.409 -2.93481 -42.8045 -7.47895 8.48403e-10 -2.06384e-09 1.07727e-09 1.42532e-09 -3.57532e-09 1.88994e-09 8.48399e-10 -2.06383e-09 1.07724e-09 7.73091 5.47488 0.417314 8.48404e-10 -2.06384e-09 1.07727e-09 2.90554 0.965183 0.102902 8.48412e-10 -2.06384e-09 1.07726e-09 10.2786 0.731801 0.0259123 8.48402e-10 -2.06384e-09 1.07727e-09 2.22167 -0.733487 -0.20892 4.46878e-14 6.97953e-14 -8.90505e-14 -108.175 69.1881 73.2606 21.0644 -52.4802 -111.563 7.43383 -58.4677 13.2417 -9.62723e-10 -1.21458e-09 -3.06691e-10 -1.63917e-09 -2.10318e-09 -5.8128e-10 -9.62726e-10 -1.21457e-09 -3.06666e-10 -7.73091 5.47488 -0.417314 -9.62721e-10 -1.21458e-09 -3.06692e-10 -2.90554 0.965183 -0.102902 -9.62729e-10 -1.21458e-09 -3.06697e-10 -10.2786 0.731801 -0.0259123 -9.62721e-10 -1.21457e-09 -3.06699e-10 -2.22167 -0.733487 0.20892 -2.03217e-16 0.0 -3.88251e-19 -7.19905 -19.821 -0.588614 -0.350968 41.6736 0.872368 -1.00036 -23.4482 -2.52293 2.03217e-16 0.0 3.88251e-19 11.7701 -26.9103 7.02711 0.59556 51.7927 -1.34145 1.4618 -21.2508 3.99715
-3.9333 76.8419 35.2314 -1.4067 -2.5154 2.0599 1.12593 26.9429 -2.34042 1.89613 -7.29893 -0.494524 11.0151 -4.24147 6.11048 -12.9601 8.09822 9.08017 -0.0 0.0 0.0 -0.0 0.0 0.0 2.48301e-14 4.35351e-14 -7.24353e-14 54.7083 82.3292 -13.0842 -25.652 -46.9154 97.5256 -2.85777 -42.3649 -7.3645 3.91813e-10 -9.94402e-10 6.26275e-10 6.52865e-10 -1.7192e-09 1.09477e-09 3.91812e-10 -9.94395e-10 6.26254e-10 7.73091 5.47488 0.417314 3.91813e-10 -9.94404e-10 6.26275e-10 2.90554 0.965183 0.102902 3.9182e-10 -9.94401e-10 6.26275e-10 10.2786 0.731801 0.0259123 3.91813e-10 -9.94399e-10 6.26282e-10 2.22167 -0.733487 -0.20892 2.46503e-14 4.35316e-14 -7.27707e-14 -108.708 68.5745 74.2199 20.9231 -52.6012 -111.924 7.2878 -58.1373 13.0698 -4.96763e-10 -6.06948e-10 -2.11489e-10 -8.42217e-10 -1.05085e-09 -3.91982e-10 -4.96766e-10 -6.06944e-10 -2.1147e-10 -7.73091 5.47488 -0.417314 -4.96762e-10 -6.06949e-10 -2.11491e-10 -2.90554 0.965183 -0.102902 -4.96769e-10 -6.06949e-10 -2.11492e-10 -10.2786 0.731801 -0.0259123 -4.96758e-10 -6.06945e-10 -2.11495e-10 -2.22167 -0.733487 0.20892 -2.03217e-16 0.0 -3.88251e-19 -7.39782 -19.5146 -1.02417 -0.351197 41.682 0.875994 -1.07065 -23.6422 -2.66049 2.03217e-16 0.0 3.88251e-19 11.575 -26.9269 6.69105 0.599062 51.8489 -1.33733 1.36645 -21.1216 3.78848
-3.9227 76.832 35.2588 -1.3397 -1.9905 1.9568 0.983513 26.8872 -2.10497 1.64916 -7.27759 -0.453857 11.3406 -4.13631 6.04013 -13.034 8.56893 8.90643 -0.0 0.0 0.0 -0.0 0.0 0.0 1.1414e-15 2.17423e-14 -4.62419e-14 66.0548 80.4077 -23.559 -25.6172 -46.9768 97.6608 -2.76094 -41.8011 -7.21971 -8.79477e-12 -9.95179e-11 2.1284e-10 -2.40848e-11 -1.65327e-10 3.66592e-10 -8.79193e-12 -9.95154e-11 2.12828e-10 7.73091 5.47488 0.417314 -8.79499e-12 -9.95184e-11 2.12838e-10 2.90554 0.965183 0.102902 -8.78792e-12 -9.95151e-11 2.12841e-10 10.2786 0.731801 0.0259123 -8.79231e-12 -9.95133e-11 2.12853e-10 2.22167 -0.733487 -0.20892 9.34269e-16 2.17408e-14 -4.66185e-14 -109.025 67.5552 74.8399 20.7538 -52.7434 -112.352 7.07885 -57.6538 12.823 -6.03429e-11 -1.06534e-10 -1.6764e-10 -9.3975e-11 -1.80386e-10 -2.925e-10 -6.03468e-11 -1.06535e-10 -1.67627e-10 -7.73091 5.47488 -0.417314 -6.03436e-11 -1.06537e-10 -1.67643e-10 -2.90554 0.965183 -0.102902 -6.0349e-11 -1.06538e-10 -1.67641e-10 -10.2786 0.731801 -0.0259123 -6.03348e-11 -1.06535e-10 -1.67644e-10 -2.22167 -0.733487 0.20892 -2.03217e-16 0.0 -3.88251e-19 -7.55966 -19.2497 -1.43859 -0.351356 41.6831 0.879327 -1.13705 -23.8451 -2.78767 2.03217e-16 0.0 3.88251e-19 11.4212 -26.9847 6.38431 0.603096 51.9177 -1.33362 1.26403 -20.9833 3.56251
-3.98454 76.8429 35.3926 -1.3522 -1.0319 1.7012 0.934803 26.7489 -1.93525 1.43815 -7.3113 -0.422837 11.4845 -3.77096 5.93119 -12.9806 8.94961 8.74274 -0.0 0.0 0.0 -0.0 0.0 0.0 -1.5217e-14 1.59024e-14 -2.68359e-14 74.04 77.8721 -30.6254 -25.5726 -47.0558 97.8337 -2.6484 -41.1337 -7.05069 -1.7653e-10 6.07836e-11 8.06875e-11 -3.08253e-10 1.19487e-10 1.32375e-10 -1.76526e-10 6.07836e-11 8.06811e-11 7.73091 5.47488 0.417314 -1.76531e-10 6.0784e-11 8.06843e-11 2.90554 0.965183 0.102902 -1.76524e-10 6.07865e-11 8.06899e-11 10.2786 0.731801 0.0259123 -1.76527e-10 6.07884e-11 8.07034e-11 2.22167 -0.733487 -0.20892 -1.54465e-14 1.5902e-14 -2.72335e-14 -109.188 66.0346 75.0169 20.5715 -52.8947 -112.808 6.83156 -57.0647 12.53 1.37362e-10 -8.58432e-12 -2.15257e-10 2.47619e-10 -1.2754e-12 -3.63407e-10 1.37357e-10 -8.58869e-12 -2.15247e-10 -7.73091 5.47488 -0.417314 1.3736e-10 -8.58919e-12 -2.1526e-10 -2.90554 0.965183 -0.102902 1.37355e-10 -8.59008e-12 -2.15257e-10 -10.2786 0.731801 -0.0259123 1.37372e-10 -8.5875e-12 -2.1526e-10 -2.22167 -0.733487 0.20892 -2.03217e-16 0.0 -3.88251e-19 -7.645 -19.0383 -1.82923 -0.350602 41.6483 0.881055 -1.19158 -24.043 -2.88894 2.03217e-16 0.0 3.88251e-19 11.3533 -27.1119 6.12135 0.607932 52.0027 -1.33003 1.14377 -20.8325 3.29352
-4.00714 76.837 35.4273 -1.4463 -0.4722 1.6737 1.01443 26.4798 -1.84503 1.25154 -7.42838 -0.40379 11.4296 -3.13856 5.77025 -12.7708 9.42238 8.59634 -0.0 0.0 0.0 -0.0 0.0 0.0 -2.42072e-14 4.01542e-14 -1.77675e-14 80.2864 74.7946 -35.9846 -25.5256 -47.1342 98.0125 -2.50599 -40.2635 -6.83462 6.0082e-11 -1.17214e-09 4.57623e-10 8.91643e-11 -1.99904e-09 7.9147e-10 6.00862e-11 -1.17214e-09 4.57619e-10 7.73091 5.47488 0.417314 6.00808e-11 -1.17214e-09 4.57621e-10 2.90554 0.965183 0.102902 6.00878e-11 -1.17214e-09 4.57626e-10 10.2786 0.731801 0.0259123 6.00843e-11 -1.17214e-09 4.57638e-10 2.22167 -0.733487 -0.20892 -2.44551e-14 4.01534e-14 -1.81589e-14 -109.546 63.8688 75.1993 20.3642 -53.0645 -113.323 6.56747 -56.4031 12.2139 -6.15838e-11 -6.36283e-10 -4.54655e-10 -8.48295e-11 -1.06525e-09 -7.85957e-10 -6.15894e-11 -6.36288e-10 -4.54645e-10 -7.73091 5.47488 -0.417314 -6.15852e-11 -6.36288e-10 -4.54657e-10 -2.90554 0.965183 -0.102902 -6.15907e-11 -6.36289e-10 -4.54655e-10 -10.2786 0.731801 -0.0259123 -6.15748e-11 -6.36287e-10 -4.5466e-10 -2.22167 -0.733487 0.20892 -2.03217e-16 0.0 -3.88251e-19 -7.62547 -18.8828 -2.19298 -0.348707 41.5686 0.88043 -1.22196 -24.2468 -2.9385 2.03217e-16 0.0 3.88251e-19 11.4087 -27.3183 5.91731 0.614044 52.1123 -1.32623 0.991235 -20.6748 2.9457
-4.00172 76.8192 35.3907 -1.5906 -0.2321 1.8486 1.18229 26.1139 -1.79204 1.06196 -7.61469 -0.389182 11.2419 -2.27246 5.55705 -12.4357 9.91004 8.42836 -0.0 0.0 0.0 -0.0 0.0 0.0 -3.07352e-14 8.46823e-14 -1.04517e-14 85.2403 71.1621 -40.0863 -25.4757 -47.2139 98.1997 -2.34397 -39.2136 -6.58246 5.65267e-10 -3.32984e-09 1.15939e-09 9.39777e-10 -5.71312e-09 2.021e-09 5.65268e-10 -3.32983e-09 1.15939e-09 7.73091 5.47488 0.417314 5.65265e-10 -3.32983e-09 1.15939e-09 2.90554 0.965183 0.102902 5.65272e-10 -3.32984e-09 1.15939e-09 10.2786 0.731801 0.0259123 5.65267e-10 -3.32984e-09 1.1594e-09 2.22167 -0.733487 -0.20892 -3.09988e-14 8.46806e-14 -1.08182e-14 -109.993 61.1542 75.3516 20.1269 -53.2532 -113.905 6.27813 -55.6359 11.8636 -5.11568e-10 -1.75068e-09 -8.3457e-10 -8.43107e-10 -2.96197e-09 -1.46392e-09 -5.11575e-10 -1.75068e-09 -8.34555e-10 -7.73091 5.47488 -0.417314 -5.11569e-10 -1.75068e-09 -8.3457e-10 -2.90554 0.965183 -0.102902 -5.11576e-10 -1.75068e-09 -8.34569e-10 -10.2786 0.731801 -0.0259123 -5.11561e-10 -1.75068e-09 -8.34576e-10 -2.22167 -0.733487 0.20892 -2.03217e-16 0.0 -3.88251e-19 -7.53043 -18.7771 -2.5328 -0.34613 41.4598 0.878294 -1.2352 -24.4593 -2.95159 2.03217e-16 0.0 3.88251e-19 11.5541 -27.5887 5.76045 0.621144 52.2421 -1.32247 0.817069 -20.5094 2.54275
-4.01597 76.8052 35.3655 -1.7333 0.0276 2.041 1.39037 25.7346 -1.77699 0.916135 -7.81711 -0.379413 10.9222 -1.16193 5.3253 -12.0202 10.0602 8.25089 -0.0 0.0 0.0 -0.0 0.0 0.0 -3.12069e-14 1.25036e-13 -3.33935e-15 88.3682 67.1331 -42.3677 -25.4047 -47.3333 98.4673 -2.1965 -38.1893 -6.34541 1.05503e-09 -5.2817e-09 1.81161e-09 1.76507e-09 -9.07646e-09 3.16458e-09 1.05503e-09 -5.2817e-09 1.81161e-09 7.73091 5.47488 0.417314 1.05503e-09 -5.2817e-09 1.81162e-09 2.90554 0.965183 0.102902 1.05504e-09 -5.2817e-09 1.81162e-09 10.2786 0.731801 0.0259123 1.05503e-09 -5.28171e-09 1.81162e-09 2.22167 -0.733487 -0.20892 -3.14803e-14 1.25033e-13 -3.67169e-15 -110.157 58.1543 74.9196 19.887 -53.4374 -114.488 5.94534 -54.7119 11.4578 -9.66445e-10 -2.80383e-09 -1.16774e-09 -1.61174e-09 -4.75778e-09 -2.06165e-09 -9.66454e-10 -2.80383e-09 -1.16772e-09 -7.73091 5.47488 -0.417314 -9.66446e-10 -2.80383e-09 -1.16774e-09 -2.90554 0.965183 -0.102902 -9.66454e-10 -2.80383e-09 -1.16774e-09 -10.2786 0.731801 -0.0259123 -9.66441e-10 -2.80383e-09 -1.16775e-09 -2.22167 -0.733487 0.20892 -2.03217e-16 0.0 -3.88251e-19 -7.407 -18.7213 -2.8552 -0.343056 41.3303 0.875713 -1.25249 -24.6537 -2.97438 2.03217e-16 0.0 3.88251e-19 11.7288 -27.9132 5.62485 0.628368 52.3767 -1.31926 0.648053 -20.3234 2.14831
-4.09326 76.8149 35.4573 -1.8435 0.9937 2.0825 1.59036 25.4257 -1.80041 0.860716 -7.98255 -0.374891 10.47 0.203588 5.10883 -11.5743 9.51968 8.07693 -0.0 0.0 0.0 -0.0 0.0 0.0 -2.20282e-14 1.36764e-13 5.11871e-15 89.6769 62.8876 -42.7936 -25.2919 -47.5291 98.8907 -2.08924 -37.3967 -6.16769 1.24539e-09 -5.89714e-09 2.03993e-09 2.08651e-09 -1.01428e-08 3.56584e-09 1.24539e-09 -5.89713e-09 2.03993e-09 7.73091 5.47488 0.417314 1.24539e-09 -5.89713e-09 2.03993e-09 2.90554 0.965183 0.102902 1.2454e-09 -5.89714e-09 2.03993e-09 10.2786 0.731801 0.0259123 1.24539e-09 -5.89714e-09 2.03993e-09 2.22167 -0.733487 -0.20892 -2.23022e-14 1.36761e-13 4.82053e-15 -109.867 55.1154 73.5671 19.6745 -53.5953 -114.999 5.55691 -53.579 10.9807 -1.18007e-09 -3.24777e-09 -1.2669e-09 -1.97524e-09 -5.51904e-09 -2.2435e-09 -1.18008e-09 -3.24777e-09 -1.26688e-09 -7.73091 5.47488 -0.417314 -1.18007e-09 -3.24777e-09 -1.26689e-09 -2.90554 0.965183 -0.102902 -1.18008e-09 -3.24778e-09 -1.2669e-09 -10.2786 0.731801 -0.0259123 -1.18007e-09 -3.24778e-09 -1.26691e-09 -2.22167 -0.733487 0.20892 -2.03217e-16 0.0 -3.88251e-19 -7.30217 -18.7151 -3.16661 -0.339657 41.1889 0.873745 -1.29567 -24.8035 -3.05325 2.03217e-16 0.0 3.88251e-19 11.8713 -28.282 5.48441 0.634866 52.5009 -1.31716 0.510441 -20.1046 1.82582
